<svg xmlns="http://www.w3.org/2000/svg" style="display: none;">
  <symbol id="facebook" viewBox="0 0 20 20">
    <path
      d="M12.2 2.9001C12.35 2.9001 12.5 2.9001 12.8 2.9001V5.1501C12.65 5.1501 12.35 5.1501 12.05 5.1501C11.75 5.1501 11.45 5.1501 11.3 5.3001C11.15 5.4501 11.15 5.6001 11.15 5.9501C11.15 6.2501 11.15 6.4501 11.15 6.7501H12.8V8.6501H11.15V16.9001H8.60001V8.6001H7.25V6.7001H8.60001V6.0501C8.60001 4.9501 8.75 4.1501 9.05 3.8001C9.5 3.1501 10.4 2.8501 11.75 2.8501C11.9 2.9001 12.05 2.9001 12.2 2.9001Z"
      fill="#050505"
    />
  </symbol>
  <symbol id="instagram" viewBox="0 0 20 20">
    <path
      d="M17.9485 6.72248C17.9387 6.051 17.8143 5.38485 17.5762 4.75685C17.1595 3.68444 16.311 2.83646 15.2368 2.42133C14.6157 2.18805 13.9591 2.06298 13.2945 2.04879C12.4398 2.01064 12.1688 2 9.99911 2C7.82941 2 7.55131 2 6.7028 2.04879C6.03909 2.06298 5.3825 2.18805 4.76144 2.42133C3.68725 2.83646 2.83785 3.68444 2.42203 4.75685C2.18836 5.37687 2.06219 6.03238 2.04976 6.69498C2.01155 7.54917 2 7.81972 2 9.98581C2 12.1519 2 12.4287 2.04976 13.2766C2.06308 13.9401 2.18836 14.5947 2.42203 15.2165C2.83874 16.2881 3.68725 17.136 4.76233 17.5512C5.38072 17.7924 6.03732 17.929 6.70369 17.9503C7.55931 17.9885 7.8303 18 10 18C12.1697 18 12.4478 18 13.2963 17.9503C13.96 17.937 14.6166 17.812 15.2386 17.5787C16.3127 17.1627 17.1613 16.3147 17.578 15.2432C17.8116 14.6222 17.9369 13.9676 17.9502 13.3033C17.9884 12.4499 18 12.1794 18 10.0124C17.9982 7.84633 17.9982 7.57135 17.9485 6.72248ZM9.99378 14.0821C7.72457 14.0821 5.88627 12.2468 5.88627 9.98137C5.88627 7.71593 7.72457 5.8807 9.99378 5.8807C12.2612 5.8807 14.1013 7.71593 14.1013 9.98137C14.1013 12.2468 12.2612 14.0821 9.99378 14.0821ZM14.2648 6.68522C13.7343 6.68522 13.307 6.25768 13.307 5.72902C13.307 5.20036 13.7343 4.77281 14.2648 4.77281C14.7934 4.77281 15.2217 5.20036 15.2217 5.72902C15.2217 6.25768 14.7934 6.68522 14.2648 6.68522Z"
      fill="#050505"
    />
    <path
      d="M9.99469 12.485C11.3768 12.485 12.4972 11.3646 12.4972 9.98248C12.4972 8.60039 11.3768 7.47998 9.99469 7.47998C8.61259 7.47998 7.49219 8.60039 7.49219 9.98248C7.49219 11.3646 8.61259 12.485 9.99469 12.485Z"
      fill="#050505"
    />
  </symbol>
  <symbol id="youtube" viewBox="0 0 20 20">
    <path
      d="M18.82 5.84762C18.82 5.84762 18.64 4.54762 18.1 3.99048C17.44 3.24762 16.66 3.24762 16.3 3.18571C13.78 3 10 3 10 3C10 3 6.22 3 3.7 3.18571C3.34 3.24762 2.56 3.24762 1.9 3.99048C1.36 4.54762 1.18 5.84762 1.18 5.84762C1.18 5.84762 1 7.33333 1 8.81905V10.181C1 11.6667 1.18 13.2143 1.18 13.2143C1.18 13.2143 1.36 14.5143 1.9 15.0714C2.56 15.8143 3.46 15.8143 3.88 15.8762C5.32 15.9381 10 16 10 16C10 16 13.78 16 16.3 15.8143C16.66 15.7524 17.44 15.7524 18.1 15.0095C18.64 14.4524 18.82 13.1524 18.82 13.1524C18.82 13.1524 19 11.6667 19 10.181V8.81905C19 7.33333 18.82 5.84762 18.82 5.84762ZM8.14 11.9143V6.71429L13 9.31429L8.14 11.9143Z"
      fill="#050505"
    />
  </symbol>
</svg>