<svg xmlns="http://www.w3.org/2000/svg" aria-hidden="true" style="position:absolute;width:0;height:0;overflow:hidden">
  <defs>
    <symbol id="icon-untitled" viewBox="0 0 32 32">
      <path fill="#e8e8e8" d="M0 29.017v-8.71c0-3.254.573-6.253 1.719-8.997s3.089-5.519 5.827-8.327l4.967 3.924c-1.592 1.595-2.802 3.095-3.63 4.498s-1.369 2.84-1.624 4.307h6.113v13.304H-.001zm18.627 0v-8.71c0-3.254.573-6.253 1.719-8.997s3.089-5.519 5.827-8.327l4.967 3.924c-1.592 1.595-2.802 3.095-3.63 4.498s-1.369 2.84-1.624 4.307h6.113v13.304H18.626z" style="fill:var(--color1, #e8e8e8)"/>
    </symbol>
    <symbol id="icon-align-justify" viewBox="0 0 32 32">
      <path fill="none" stroke="#fff" stroke-linecap="round" stroke-linejoin="round" stroke-width="2.286" d="M28 13.333H4M28 8H4M28 18.667H4M28 24H4" style="stroke:var(--color2, #fff)"/>
    </symbol>
    <symbol id="icon-arrow-up-right" viewBox="0 0 32 32">
      <path stroke-linecap="round" stroke-linejoin="round" stroke-width="2.667" d="M9.333 22.667 22.666 9.334M9.333 9.333h13.333v13.333"/>
    </symbol>
    <symbol id="icon-chevron-down-black" viewBox="0 0 32 32">
      <path d="M7.493 10.492c-.91.325-1.319 1.298-.926 2.201.082.188.996 1.131 4.302 4.437 4.667 4.668 4.4 4.437 5.131 4.437s.464.231 5.131-4.437c4.668-4.667 4.437-4.4 4.437-5.131 0-.487-.123-.795-.448-1.12a1.41 1.41 0 0 0-1.037-.453l-.059.001h.003c-.741-.004-.505-.203-4.468 3.751L16 17.73l-3.534-3.531c-2.91-2.908-3.579-3.55-3.796-3.646a1.712 1.712 0 0 0-1.189-.058l.012-.003z"/>
    </symbol>
    <symbol id="icon-chevron-up-black" viewBox="0 0 32 32">
      <path d="M15.488 10.494c-.183.071-.342.16-.485.269l.005-.004a351.365 351.365 0 0 0-4.267 4.235l-.028.028c-4.544 4.556-4.288 4.258-4.284 5.004l-.001.056c0 .409.174.778.452 1.037l.001.001c.325.325.633.448 1.12.448.724 0 .532.162 4.468-3.769l3.532-3.531 3.532 3.531c3.936 3.931 3.744 3.769 4.468 3.769.487 0 .795-.123 1.12-.448s.448-.633.448-1.12c0-.731.231-.464-4.437-5.131-3.484-3.486-4.242-4.219-4.46-4.315a1.73 1.73 0 0 0-1.195-.057l.012-.003z"/>
    </symbol>
    <symbol id="icon-ei_sc-youtube" viewBox="0 0 32 32">
      <path d="M30.112 9.356s-.288-2.08-1.152-2.971c-1.056-1.189-2.304-1.189-2.88-1.288C22.048 4.8 16 4.8 16 4.8s-6.048 0-10.08.297c-.576.099-1.824.099-2.88 1.288-.864.891-1.152 2.971-1.152 2.971S1.6 11.733 1.6 14.11v2.179c0 2.377.288 4.853.288 4.853s.288 2.08 1.152 2.971c1.056 1.189 2.496 1.189 3.168 1.288 2.304.099 9.792.198 9.792.198s6.048 0 10.08-.297c.576-.099 1.824-.099 2.88-1.288.864-.891 1.152-2.971 1.152-2.971s.288-2.377.288-4.754V14.11c0-2.377-.288-4.754-.288-4.754zm-17.088 9.707v-8.32l7.776 4.16-7.776 4.16z"/>
    </symbol>
    <symbol id="icon-Facebook" viewBox="0 0 32 32">
      <path d="M19.52 4.64h.96v3.6h-1.2c-.48 0-.96 0-1.2.24s-.24.48-.24 1.04v1.28h2.64v3.04h-2.64v13.2h-4.08V13.76H11.6v-3.04h2.16V9.68c0-1.76.24-3.04.72-3.6.72-1.04 2.16-1.52 4.32-1.52.24.08.48.08.72.08z"/>
    </symbol>
    <symbol id="icon-heart" viewBox="0 0 32 32">
      <path stroke-linecap="round" stroke-linejoin="round" stroke-width="2.667" d="M27.786 6.146a7.345 7.345 0 0 0-5.187-2.15 7.33 7.33 0 0 0-5.187 2.15l-1.413 1.413-1.413-1.413a7.333 7.333 0 0 0-10.374 0 7.333 7.333 0 0 0 0 10.374l11.787 11.787L27.786 16.52a7.345 7.345 0 0 0 2.15-5.187 7.33 7.33 0 0 0-2.15-5.187z"/>
    </symbol>
    <symbol id="icon-instagram" viewBox="0 0 32 32">
      <path d="M28.718 10.756a9.264 9.264 0 0 0-.596-3.145 6.547 6.547 0 0 0-3.743-3.737 9.42 9.42 0 0 0-3.108-.596c-1.368-.061-1.801-.078-5.273-.078s-3.916 0-5.274.078a9.418 9.418 0 0 0-3.106.596 6.541 6.541 0 0 0-3.743 3.737 9.288 9.288 0 0 0-.596 3.101c-.061 1.367-.08 1.8-.08 5.265s0 3.909.08 5.265a9.335 9.335 0 0 0 .596 3.104 6.55 6.55 0 0 0 3.744 3.736c.989.386 2.04.604 3.106.639 1.369.061 1.803.08 5.274.08s3.916 0 5.274-.08a9.362 9.362 0 0 0 3.108-.595 6.555 6.555 0 0 0 3.743-3.737 9.35 9.35 0 0 0 .596-3.104c.061-1.365.08-1.798.08-5.265-.003-3.466-.003-3.906-.082-5.264zM15.99 22.531c-3.631 0-6.572-2.936-6.572-6.561s2.941-6.561 6.572-6.561c3.628 0 6.572 2.936 6.572 6.561s-2.944 6.561-6.572 6.561zm6.834-11.835a1.53 1.53 0 1 1 0-3.06 1.53 1.53 0 1 1 0 3.06z"/>
      <path d="M15.992 19.976a4.004 4.004 0 1 0 0-8.009 4.004 4.004 0 0 0 0 8.009z"/>
    </symbol>
    <symbol id="icon-eye" viewBox="0 0 32 32">
      <path d="M14.827 3.954A14.09 14.09 0 0 0 10.08 5.24l.086-.037c-1.941.885-3.691 2.133-5.448 3.89a26.356 26.356 0 0 0-3.982 5.051l-.066.117C.009 15.357 0 15.383 0 16s.034.704.707 1.806a26.64 26.64 0 0 0 4.009 5.099l.002.002c2.738 2.734 5.658 4.378 8.811 4.96 2.789.515 5.624.15 8.304-1.07 3.56-1.622 6.99-4.893 9.494-9.053.662-1.101.672-1.126.672-1.744s-.01-.642-.68-1.755c-1.907-3.17-4.496-5.971-7.133-7.723-2.997-1.989-6.083-2.835-9.36-2.568zm2.266 2.875c.742.085 1.68.293 2.392.533.848.285 2.194.949 2.995 1.477 2.307 1.518 4.63 4.019 6.346 6.829l.203.333-.203.333c-1.715 2.81-4.038 5.31-6.346 6.829-.802.528-2.147 1.192-2.995 1.477-2.845.958-5.709.739-8.507-.648-2.061-1.021-3.95-2.598-5.808-4.843a28.597 28.597 0 0 1-1.976-2.773l-.071-.121-.147-.253.147-.253c.41-.704 1.442-2.165 2.046-2.894 1.87-2.261 3.778-3.848 5.84-4.856a11.71 11.71 0 0 1 3.791-1.16l.06-.006a13.384 13.384 0 0 1 2.281.002l-.049-.003zm-1.955 3.813a5.403 5.403 0 0 0-3.596 2.265l-.012.018A5.375 5.375 0 0 0 10.572 16a5.39 5.39 0 0 0 .964 3.086l-.012-.018c1.93 2.79 5.886 3.166 8.288.789a5.328 5.328 0 0 0 1.545-3.014l.004-.029a4.578 4.578 0 0 0-.005-1.656l.004.028a5.27 5.27 0 0 0-1.526-3.022l-.001-.001a5.26 5.26 0 0 0-2.994-1.523l-.029-.003a4.975 4.975 0 0 0-1.705.008l.03-.004zm1.406 2.857c.485.102.843.306 1.246.71.526.526.77 1.091.77 1.79s-.243 1.264-.77 1.79c-.526.526-1.091.77-1.79.77s-1.264-.243-1.79-.77c-.405-.403-.608-.762-.71-1.246a2.605 2.605 0 0 1 .203-1.68l-.007.016c.17-.368.794-1 1.155-1.174a2.66 2.66 0 0 1 1.155-.261c.19 0 .376.02.555.057l-.017-.003z"/>
    </symbol>
    <symbol id="icon-eye-off" viewBox="0 0 32 32">
      <path d="M.534.154a1.64 1.64 0 0 0-.381.381c-.146.216-.154.259-.154.798 0 .542.008.581.158.805.086.13 1.414 1.493 2.952 3.027l2.794 2.792-1.235 1.235c-1.87 1.867-3.043 3.392-4.258 5.531l-.411.722v.546c0 .629.032.71.707 1.816a26.64 26.64 0 0 0 4.009 5.099l.002.002c1.765 1.763 3.501 3.002 5.448 3.89 2.848 1.296 5.765 1.616 8.766.958a14.635 14.635 0 0 0 4.355-1.689l-.069.037.526-.302 3.021 3.013c1.661 1.658 3.098 3.053 3.19 3.099.125.062.322.086.726.086.522 0 .568-.01.782-.154a1.64 1.64 0 0 0 .381-.381c.146-.216.154-.259.154-.798 0-.542-.008-.581-.158-.805C31.625 29.54 2.253.192 2.041.084c-.125-.061-.325-.085-.726-.085-.522 0-.568.01-.782.154zm14.479 3.777c-.486.034-1.48.181-1.958.291-.811.186-1.222.627-1.259 1.35-.024.491.117.848.456 1.146.461.406.718.435 1.909.216.576-.095 1.24-.149 1.917-.149.329 0 .656.013.979.038l-.043-.003c1.475.163 2.82.58 4.039 1.208l-.065-.03c2.237 1.098 4.293 2.862 6.24 5.362.459.587 1.216 1.68 1.598 2.306l.203.334-.445.706a25.495 25.495 0 0 1-1.67 2.339l.038-.049c-.51.65-.638.957-.584 1.411.031.355.198.667.448.885l.002.001c.275.248.374.298.714.363a1.388 1.388 0 0 0 1.056-.222l-.005.003c.552-.4 2.157-2.632 3.086-4.294l.331-.592v-.544c0-.626-.008-.646-.68-1.762-1.907-3.17-4.496-5.971-7.133-7.723-2.322-1.541-4.637-2.376-7.142-2.574a14.63 14.63 0 0 0-2.075-.014l.043-.002zm-3.896 9.581a5.522 5.522 0 0 0-.64 2.598c0 .183.009.365.026.544l-.002-.023c.141 1.302.682 2.43 1.59 3.323a5.328 5.328 0 0 0 3.256 1.544l.022.002c1.027.112 2.288-.139 3.114-.619l.218-.126 1.45 1.45c.797.798 1.45 1.469 1.45 1.49 0 .115-1.541.776-2.387 1.022-2.918.851-5.517.624-8.227-.722-2.069-1.024-3.957-2.598-5.816-4.846-.605-.73-1.637-2.19-2.045-2.894l-.149-.253.336-.541A23.339 23.339 0 0 1 7.34 10.59l.017-.015.608-.555 3.275 3.274-.122.221zm5.363 5.058c0 .078-.627.112-.987.051a2.59 2.59 0 0 1-2.133-2.819l-.001.011.038-.362 1.542 1.541c.846.848 1.541 1.557 1.541 1.578z"/>
    </symbol>
    <symbol id="icon-trash-04" viewBox="0 0 32 32">
      <path stroke-linecap="round" stroke-linejoin="round" stroke-width="2.667" d="M12 4h8M4 8h24m-2.667 0-.935 14.026c-.14 2.104-.21 3.156-.665 3.954a4.007 4.007 0 0 1-1.731 1.62c-.826.4-1.881.4-3.99.4h-4.025c-2.109 0-3.163 0-3.99-.4a4.001 4.001 0 0 1-1.731-1.62c-.455-.798-.525-1.85-.665-3.954L6.666 8"/>
    </symbol>
    <symbol id="icon-Vector-1" viewBox="0 0 32 32">
      <path fill="none" stroke="#fff" stroke-width="5.848" d="m2.909 17.455 8.727 5.818 16-17.455" style="stroke:var(--color2, #fff)"/>
    </symbol>
    <symbol id="icon-arrow-up-right-white" viewBox="0 0 32 32">
      <path fill="none" stroke="#fff" stroke-linecap="round" stroke-linejoin="round" stroke-width="2.667" d="M9.333 22.667 22.666 9.334M9.333 9.333h13.333v13.333"/>
    </symbol>
    <symbol id="icon-heart-white" viewBox="0 0 32 32">
      <path fill="none" stroke="#fff" stroke-linecap="round" stroke-linejoin="round" stroke-width="2.667" d="M27.786 6.146a7.345 7.345 0 0 0-5.187-2.15 7.33 7.33 0 0 0-5.187 2.15l-1.413 1.413-1.413-1.413a7.333 7.333 0 0 0-10.374 0 7.333 7.333 0 0 0 0 10.374l11.787 11.787L27.786 16.52a7.345 7.345 0 0 0 2.15-5.187 7.33 7.33 0 0 0-2.15-5.187z" style="stroke:var(--color2, #fff)"/>
    </symbol>
    <symbol id="icon-trash-white" viewBox="0 0 32 32">
      <path fill="none" stroke="#fff" stroke-linecap="round" stroke-linejoin="round" stroke-width="2.667" d="M12 4h8M4 8h24m-2.667 0-.935 14.026c-.14 2.104-.21 3.156-.665 3.954a4.007 4.007 0 0 1-1.731 1.62c-.826.4-1.881.4-3.99.4h-4.025c-2.109 0-3.163 0-3.99-.4a4.001 4.001 0 0 1-1.731-1.62c-.455-.798-.525-1.85-.665-3.954L6.666 8" style="stroke:var(--color2, #fff)"/>
    </symbol>
    <symbol id="icon-x" viewBox="0 0 24 24">
      <path fill="#000" fill-rule="evenodd" d="M5.65 5.067c-.229.081-.506.364-.586.599a.968.968 0 0 0 .001.677c.06.179.315.447 2.789 2.927L10.578 12l-2.724 2.73c-2.474 2.48-2.729 2.748-2.789 2.927A1.353 1.353 0 0 0 5 18c0 .405.309.826.69.939.258.077.362.077.633-.003.21-.061.305-.151 2.947-2.789L12 13.422l2.73 2.725c2.642 2.638 2.737 2.728 2.947 2.789.271.08.375.08.633.003.279-.083.546-.35.629-.629.077-.258.077-.362-.003-.633-.061-.21-.151-.305-2.789-2.947L13.422 12l2.725-2.73c2.638-2.642 2.728-2.737 2.789-2.947.08-.271.08-.375.003-.633C18.826 5.309 18.405 5 18 5c-.08 0-.234.029-.343.065-.179.06-.447.315-2.927 2.789L12 10.578 9.27 7.854C6.79 5.38 6.522 5.125 6.343 5.065a1.03 1.03 0 0 0-.693.002"/>
    </symbol>
    <symbol id="burger-menu" viewBox="0 0 28 28">
      <path d="M24.5 11.6665H3.5" stroke="currentColor" stroke-width="2" stroke-linecap="round" stroke-linejoin="round"/>
      <path d="M24.5 7H3.5" stroke="currentColor" stroke-width="2" stroke-linecap="round" stroke-linejoin="round"/>
      <path d="M24.5 16.3335H3.5" stroke="currentColor" stroke-width="2" stroke-linecap="round" stroke-linejoin="round"/>
      <path d="M24.5 21H3.5" stroke="currentColor" stroke-width="2" stroke-linecap="round" stroke-linejoin="round"/>
    </symbol>
    <symbol id="icon-x-white" viewBox="0 0 24 24">
        <path fill="currentColor" fill-rule="evenodd" d="M5.65 5.067c-.229.081-.506.364-.586.599a.968.968 0 0 0 .001.677c.06.179.315.447 2.789 2.927L10.578 12l-2.724 2.73c-2.474 2.48-2.729 2.748-2.789 2.927A1.353 1.353 0 0 0 5 18c0 .405.309.826.69.939.258.077.362.077.633-.003.21-.061.305-.151 2.947-2.789L12 13.422l2.73 2.725c2.642 2.638 2.737 2.728 2.947 2.789.271.08.375.08.633.003.279-.083.546-.35.629-.629.077-.258.077-.362-.003-.633-.061-.21-.151-.305-2.789-2.947L13.422 12l2.725-2.73c2.638-2.642 2.728-2.737 2.789-2.947.08-.271.08-.375.003-.633C18.826 5.309 18.405 5 18 5c-.08 0-.234.029-.343.065-.179.06-.447.315-2.927 2.789L12 10.578 9.27 7.854C6.79 5.38 6.522 5.125 6.343 5.065a1.03 1.03 0 0 0-.693.002"/>
    </symbol>
  </defs>
</svg>
