<svg xmlns="http://www.w3.org/2000/svg" aria-hidden="true" style="position:absolute;width:0;height:0;overflow:hidden">
  <defs>
    <symbol id="icon-untitled" viewBox="0 0 32 32">
      <path fill="#e8e8e8" d="M0 29.017v-8.71c0-3.254.573-6.253 1.719-8.997s3.089-5.519 5.827-8.327l4.967 3.924c-1.592 1.595-2.802 3.095-3.63 4.498s-1.369 2.84-1.624 4.307h6.113v13.304H-.001zm18.627 0v-8.71c0-3.254.573-6.253 1.719-8.997s3.089-5.519 5.827-8.327l4.967 3.924c-1.592 1.595-2.802 3.095-3.63 4.498s-1.369 2.84-1.624 4.307h6.113v13.304H18.626z" style="fill:var(--color1, #e8e8e8)"/>
    </symbol>
    <symbol id="icon-align-justify" viewBox="0 0 32 32">
      <path fill="none" stroke="#fff" stroke-linecap="round" stroke-linejoin="round" stroke-width="2.286" d="M28 13.333H4M28 8H4M28 18.667H4M28 24H4" style="stroke:var(--color2, #fff)"/>
    </symbol>
    <symbol id="icon-arrow-up-right" viewBox="0 0 32 32">
      <path stroke-linecap="round" stroke-linejoin="round" stroke-width="2.667" d="M9.333 22.667 22.666 9.334M9.333 9.333h13.333v13.333"/>
    </symbol>
    <symbol id="icon-chevron-down" viewBox="0 0 32 32">
      <path fill="#none" stroke="#fff" stroke-linecap="round" stroke-linejoin="round" stroke-width="2.667" d="m8 12 8 8 8-8" style="stroke:var(--color2, #fff)"/>
    </symbol>
    <symbol id="icon-chevron-down-black" viewBox="0 0 32 32">
      <path d="M7.493 10.492c-.91.325-1.319 1.298-.926 2.201.082.188.996 1.131 4.302 4.437 4.667 4.668 4.4 4.437 5.131 4.437s.464.231 5.131-4.437c4.668-4.667 4.437-4.4 4.437-5.131 0-.487-.123-.795-.448-1.12a1.41 1.41 0 0 0-1.037-.453l-.059.001h.003c-.741-.004-.505-.203-4.468 3.751L16 17.73l-3.534-3.531c-2.91-2.908-3.579-3.55-3.796-3.646a1.712 1.712 0 0 0-1.189-.058l.012-.003z"/>
    </symbol>
    <symbol id="icon-chevron-up-black" viewBox="0 0 32 32">
      <path d="M15.488 10.494c-.183.071-.342.16-.485.269l.005-.004a351.365 351.365 0 0 0-4.267 4.235l-.028.028c-4.544 4.556-4.288 4.258-4.284 5.004l-.001.056c0 .409.174.778.452 1.037l.001.001c.325.325.633.448 1.12.448.724 0 .532.162 4.468-3.769l3.532-3.531 3.532 3.531c3.936 3.931 3.744 3.769 4.468 3.769.487 0 .795-.123 1.12-.448s.448-.633.448-1.12c0-.731.231-.464-4.437-5.131-3.484-3.486-4.242-4.219-4.46-4.315a1.73 1.73 0 0 0-1.195-.057l.012-.003z"/>
    </symbol>
    <symbol id="icon-ei_sc-youtube" viewBox="0 0 32 32">
      <path d="M30.112 9.356s-.288-2.08-1.152-2.971c-1.056-1.189-2.304-1.189-2.88-1.288C22.048 4.8 16 4.8 16 4.8s-6.048 0-10.08.297c-.576.099-1.824.099-2.88 1.288-.864.891-1.152 2.971-1.152 2.971S1.6 11.733 1.6 14.11v2.179c0 2.377.288 4.853.288 4.853s.288 2.08 1.152 2.971c1.056 1.189 2.496 1.189 3.168 1.288 2.304.099 9.792.198 9.792.198s6.048 0 10.08-.297c.576-.099 1.824-.099 2.88-1.288.864-.891 1.152-2.971 1.152-2.971s.288-2.377.288-4.754V14.11c0-2.377-.288-4.754-.288-4.754zm-17.088 9.707v-8.32l7.776 4.16-7.776 4.16z"/>
    </symbol>
    <symbol id="icon-Facebook" viewBox="0 0 32 32">
      <path d="M19.52 4.64h.96v3.6h-1.2c-.48 0-.96 0-1.2.24s-.24.48-.24 1.04v1.28h2.64v3.04h-2.64v13.2h-4.08V13.76H11.6v-3.04h2.16V9.68c0-1.76.24-3.04.72-3.6.72-1.04 2.16-1.52 4.32-1.52.24.08.48.08.72.08z"/>
    </symbol>
    <symbol id="icon-heart" viewBox="0 0 32 32">
      <path stroke-linecap="round" stroke-linejoin="round" stroke-width="2.667" d="M27.786 6.146a7.345 7.345 0 0 0-5.187-2.15 7.33 7.33 0 0 0-5.187 2.15l-1.413 1.413-1.413-1.413a7.333 7.333 0 0 0-10.374 0 7.333 7.333 0 0 0 0 10.374l11.787 11.787L27.786 16.52a7.345 7.345 0 0 0 2.15-5.187 7.33 7.33 0 0 0-2.15-5.187z"/>
    </symbol>
    <symbol id="icon-instagram" viewBox="0 0 32 32">
      <path d="M28.718 10.756a9.264 9.264 0 0 0-.596-3.145 6.547 6.547 0 0 0-3.743-3.737 9.42 9.42 0 0 0-3.108-.596c-1.368-.061-1.801-.078-5.273-.078s-3.916 0-5.274.078a9.418 9.418 0 0 0-3.106.596 6.541 6.541 0 0 0-3.743 3.737 9.288 9.288 0 0 0-.596 3.101c-.061 1.367-.08 1.8-.08 5.265s0 3.909.08 5.265a9.335 9.335 0 0 0 .596 3.104 6.55 6.55 0 0 0 3.744 3.736c.989.386 2.04.604 3.106.639 1.369.061 1.803.08 5.274.08s3.916 0 5.274-.08a9.362 9.362 0 0 0 3.108-.595 6.555 6.555 0 0 0 3.743-3.737 9.35 9.35 0 0 0 .596-3.104c.061-1.365.08-1.798.08-5.265-.003-3.466-.003-3.906-.082-5.264zM15.99 22.531c-3.631 0-6.572-2.936-6.572-6.561s2.941-6.561 6.572-6.561c3.628 0 6.572 2.936 6.572 6.561s-2.944 6.561-6.572 6.561zm6.834-11.835a1.53 1.53 0 1 1 0-3.06 1.53 1.53 0 1 1 0 3.06z"/>
      <path d="M15.992 19.976a4.004 4.004 0 1 0 0-8.009 4.004 4.004 0 0 0 0 8.009z"/>
    </symbol>
    <symbol id="icon-Property-1eye" viewBox="0 0 32 32">
      <path stroke-linecap="round" stroke-linejoin="round" stroke-width="2.88" d="M1.333 16S6.666 5.333 16 5.333 30.667 16 30.667 16 25.334 26.667 16 26.667C6.667 26.667 1.333 16 1.333 16z"/>
      <path stroke-linecap="round" stroke-linejoin="round" stroke-width="2.88" d="M16 20a4 4 0 1 0 0-8 4 4 0 0 0 0 8z"/>
    </symbol>
    <symbol id="icon-Property-1eye-off" viewBox="0 0 32 32">
      <path stroke-linecap="round" stroke-linejoin="round" stroke-width="2.88" d="M23.92 23.92A13.43 13.43 0 0 1 16 26.667C6.667 26.667 1.333 16 1.333 16A24.605 24.605 0 0 1 8.08 8.08m5.12-2.426a12.161 12.161 0 0 1 2.8-.32c9.333 0 14.667 10.667 14.667 10.667a24.646 24.646 0 0 1-2.88 4.253m-8.961-1.427a4.01 4.01 0 0 1-2.855 1.273 3.996 3.996 0 0 1-3.779-2.501 3.995 3.995 0 0 1 .983-4.424M1.333 1.334l29.333 29.333"/>
    </symbol>
    <symbol id="icon-trash-04" viewBox="0 0 32 32">
      <path stroke-linecap="round" stroke-linejoin="round" stroke-width="2.667" d="M12 4h8M4 8h24m-2.667 0-.935 14.026c-.14 2.104-.21 3.156-.665 3.954a4.007 4.007 0 0 1-1.731 1.62c-.826.4-1.881.4-3.99.4h-4.025c-2.109 0-3.163 0-3.99-.4a4.001 4.001 0 0 1-1.731-1.62c-.455-.798-.525-1.85-.665-3.954L6.666 8"/>
    </symbol>
    <symbol id="icon-Vector-1" viewBox="0 0 32 32">
      <path fill="none" stroke="#fff" stroke-width="5.848" d="m2.909 17.455 8.727 5.818 16-17.455" style="stroke:var(--color2, #fff)"/>
    </symbol>
    <symbol id="icon-arrow-up-right-white" viewBox="0 0 32 32">
      <path fill="#fff" stroke="#fff" stroke-linecap="round" stroke-linejoin="round" stroke-width="2.667" d="M9.333 22.667 22.666 9.334M9.333 9.333h13.333v13.333" style="stroke:var(--color2, #fff)"/>
    </symbol>
    <symbol id="icon-heart-white" viewBox="0 0 32 32">
      <path fill="none" stroke="#fff" stroke-linecap="round" stroke-linejoin="round" stroke-width="2.667" d="M27.786 6.146a7.345 7.345 0 0 0-5.187-2.15 7.33 7.33 0 0 0-5.187 2.15l-1.413 1.413-1.413-1.413a7.333 7.333 0 0 0-10.374 0 7.333 7.333 0 0 0 0 10.374l11.787 11.787L27.786 16.52a7.345 7.345 0 0 0 2.15-5.187 7.33 7.33 0 0 0-2.15-5.187z" style="stroke:var(--color2, #fff)"/>
    </symbol>
    <symbol id="icon-trash-white" viewBox="0 0 32 32">
      <path fill="none" stroke="#fff" stroke-linecap="round" stroke-linejoin="round" stroke-width="2.667" d="M12 4h8M4 8h24m-2.667 0-.935 14.026c-.14 2.104-.21 3.156-.665 3.954a4.007 4.007 0 0 1-1.731 1.62c-.826.4-1.881.4-3.99.4h-4.025c-2.109 0-3.163 0-3.99-.4a4.001 4.001 0 0 1-1.731-1.62c-.455-.798-.525-1.85-.665-3.954L6.666 8" style="stroke:var(--color2, #fff)"/>
    </symbol>
  </defs>
</svg>
